<svg xmlns="http://www.w3.org/2000/svg" width="32" height="32" viewBox="0 0 32 32">
    <path fill="#222" fill-rule="evenodd" d="M16 7h.02l.039.002.035.002.023.003.026.003a1.003 1.003 0 0 1 .086.016l.032.008.03.01a.997.997 0 0 1 .23.102l.015.01.052.035a1 1 0 0 1 .031.024l.006.005.082.073 5 5a1 1 0 0 1-1.414 1.414L17 10.415V24a1 1 0 0 1-2 0V10.414l-3.293 3.293a1 1 0 0 1-1.414-1.414l5-5 .082-.073.006-.006-.088.079a1.008 1.008 0 0 1 .415-.25l.031-.009a.993.993 0 0 1 .032-.008l.026-.005a1.003 1.003 0 0 1 .086-.014l.023-.003.035-.002.04-.002H16z"/>
</svg>
