<svg xmlns="http://www.w3.org/2000/svg" width="32" height="32" viewBox="0 0 32 32">
    <path fill="#222" fill-rule="evenodd" d="M16 7a1 1 0 0 1 1 1v13.584l3.293-3.291a1 1 0 0 1 1.414 1.414l-5 5a1.006 1.006 0 0 1-.088.079l.088-.079a1.008 1.008 0 0 1-.395.243l-.02.007a.998.998 0 0 1-.063.017l-.026.005A1.003 1.003 0 0 1 16 25h-.032l-.054-.004-.03-.003-.027-.003a1.003 1.003 0 0 1-.086-.016l-.032-.008a.998.998 0 0 1-.03-.01l-.02-.006a.992.992 0 0 1-.396-.243l-5-5a1 1 0 0 1 1.414-1.414L15 21.585V8a1 1 0 0 1 1-1z"/>
</svg>
