<svg xmlns="http://www.w3.org/2000/svg" width="32" height="32" viewBox="0 0 32 32">
    <path fill="#222" fill-rule="evenodd" d="M18.293 10.293a1 1 0 0 1 1.414 0l5 5c.026.026.05.053.073.082l.005.006a1.152 1.152 0 0 1 .09.135 1.045 1.045 0 0 1 .114.336A.997.997 0 0 1 25 16l-.004-.086.003.054L25 16a1.018 1.018 0 0 1-.146.52l-.01.016-.035.052c-.03.042-.064.082-.102.12l.079-.09a1.004 1.004 0 0 1-.006.007l-.073.082-5 5a1 1 0 0 1-1.414-1.414L21.584 17H8a1 1 0 0 1-.993-.883L7 16a1 1 0 0 1 1-1h13.585l-3.292-3.293a1 1 0 0 1-.083-1.32z"/>
</svg>
