<svg xmlns="http://www.w3.org/2000/svg" width="32" height="32" viewBox="0 0 32 32">
    <path fill="#222" fill-rule="evenodd" d="M12.293 10.293a1 1 0 0 1 1.414 1.414L10.414 15H24a1 1 0 0 1 .993.883L25 16a1 1 0 0 1-1 1H10.415l3.292 3.293a1 1 0 0 1 .083 1.32l-.083.094a1 1 0 0 1-1.414 0l-5-5-.073-.082a1.03 1.03 0 0 1-.17-.313A1.071 1.071 0 0 1 7 16l.004.09A1.006 1.006 0 0 1 7 16.02V16a1.02 1.02 0 0 1 .125-.484.878.878 0 0 1 .071-.111.999.999 0 0 1 .097-.112l-.079.088c.025-.03.051-.06.079-.088z"/>
</svg>
