<?xml version="1.0" encoding="UTF-8"?>
<svg width="32px" height="32px" viewBox="0 0 32 32" version="1.1" xmlns="http://www.w3.org/2000/svg" xmlns:xlink="http://www.w3.org/1999/xlink">
    <!-- Generator: sketchtool 59 (101010) - https://sketch.com -->
    <title>260DCFBF-F982-4A1B-9A1E-D33A07F81213</title>
    <desc>Created with sketchtool.</desc>
    <g id="Guide" stroke="none" stroke-width="1" fill="none" fill-rule="evenodd">
        <g id="icons" transform="translate(-824.000000, -456.000000)" fill="#222222">
            <g id=".platform/icon/babai" transform="translate(824.000000, 456.000000)">
                <g id="Combined-Shape">
                    <path d="M16,8 C20.418278,8 24,11.581722 24,16 L24,23 C24,23.8628488 22.9805374,24.3206549 22.3356362,23.7474093 L20.75,22.337955 L19.1643638,23.7474093 C18.8002056,24.0711055 18.2557655,24.0852373 17.875305,23.7808688 L16,22.2806248 L14.124695,23.7808688 C13.7442345,24.0852373 13.1997944,24.0711055 12.8356362,23.7474093 L11.25,22.337955 L9.66436384,23.7474093 C9.01946258,24.3206549 8,23.8628488 8,23 L8,16 C8,11.581722 11.581722,8 16,8 Z M16,10 C12.6862915,10 10,12.6862915 10,16 L10,20.7731562 L10.5856362,20.2525907 C10.9645222,19.9158031 11.5354778,19.9158031 11.9143638,20.2525907 L13.5339455,21.6922188 L15.375305,20.2191312 C15.7405236,19.9269563 16.2594764,19.9269563 16.624695,20.2191312 L18.4660545,21.6922188 L20.0856362,20.2525907 C20.4645222,19.9158031 21.0354778,19.9158031 21.4143638,20.2525907 L22,20.7731562 L22,16 C22,12.6862915 19.3137085,10 16,10 Z M18,12 C18.5522847,12 19,12.4477153 19,13 L19,15 C19,15.5522847 18.5522847,16 18,16 C17.4477153,16 17,15.5522847 17,15 L17,13 C17,12.4477153 17.4477153,12 18,12 Z M14,12 C14.5522847,12 15,12.4477153 15,13 L15,15 C15,15.5522847 14.5522847,16 14,16 C13.4477153,16 13,15.5522847 13,15 L13,13 C13,12.4477153 13.4477153,12 14,12 Z"></path>
                </g>
            </g>
        </g>
    </g>
</svg>