<?xml version="1.0" encoding="UTF-8"?>
<svg width="32px" height="32px" viewBox="0 0 32 32" version="1.1" xmlns="http://www.w3.org/2000/svg" xmlns:xlink="http://www.w3.org/1999/xlink">
    <!-- Generator: sketchtool 59 (101010) - https://sketch.com -->
    <title>31F332B5-AD5C-454C-8F28-F856514F6E61</title>
    <desc>Created with sketchtool.</desc>
    <g id="Guide" stroke="none" stroke-width="1" fill="none" fill-rule="evenodd">
        <g id="icons" transform="translate(-768.000000, -456.000000)" fill="#222222">
            <g id=".platform/icon/ban" transform="translate(768.000000, 456.000000)">
                <g id="Combined-Shape">
                    <path d="M16,8 C20.418278,8 24,11.581722 24,16 C24,20.418278 20.418278,24 16,24 C11.581722,24 8,20.418278 8,16 C8,11.581722 11.581722,8 16,8 Z M20.8696621,12.4940434 L20.8596192,12.5114029 C20.8180249,12.5812025 20.7671874,12.6470261 20.7071068,12.7071068 L12.7071068,20.7071068 C12.6422976,20.771916 12.5708058,20.8259699 12.4948495,20.8692683 C13.4802444,21.5809342 14.6911832,22 16,22 C19.3137085,22 22,19.3137085 22,16 C22,14.6911832 21.5809342,13.4802444 20.8696621,12.4940434 Z M16,10 C12.6862915,10 10,12.6862915 10,16 C10,17.3088168 10.4190658,18.5197556 11.1303379,19.5059566 C11.1740301,19.4291942 11.228084,19.3577024 11.2928932,19.2928932 L19.2928932,11.2928932 C19.3577024,11.228084 19.4291942,11.1740301 19.5051505,11.1307317 C18.5197556,10.4190658 17.3088168,10 16,10 Z"></path>
                </g>
            </g>
        </g>
    </g>
</svg>