<svg xmlns="http://www.w3.org/2000/svg" width="32" height="32" viewBox="0 0 32 32">
    <path fill="#222" fill-rule="evenodd" d="M16 8a1 1 0 0 1 1 1v1h.003c1.726.005 3.064.896 3.892 2.553.446.893.633 1.964.712 3.49.017.322.025.547.044 1.148.045 1.462.105 2.06.257 2.39a2.93 2.93 0 0 0 1.505 1.508A1 1 0 0 1 24 22v1a1 1 0 0 1-1 1H9a1 1 0 0 1-1-1v-1a1 1 0 0 1 .523-.879c.793-.43 1.302-.94 1.563-1.527.109-.245.164-.81.212-2.143.027-.748.037-.994.06-1.38.096-1.556.3-2.66.755-3.534.831-1.592 2.15-2.47 3.887-2.537V9a1 1 0 0 1 1-1zm-.01 3.999h-.951c-.963.038-1.645.492-2.152 1.464-.29.556-.453 1.437-.532 2.729-.022.363-.032.601-.058 1.33-.061 1.685-.12 2.292-.383 2.884A4.719 4.719 0 0 1 10.739 22h10.478a5.045 5.045 0 0 1-1.125-1.582c-.317-.686-.385-1.361-.44-3.165a48.27 48.27 0 0 0-.042-1.107c-.066-1.269-.215-2.119-.505-2.699-.5-1.003-1.163-1.445-2.105-1.447h-1l-.01-.001zM11.844 8.46a1 1 0 0 1-.304 1.382c-.736.47-1.291 1.026-1.679 1.671-.398.665-.693 1.547-.873 2.647a1 1 0 1 1-1.974-.322c.219-1.335.592-2.453 1.132-3.353.552-.92 1.328-1.697 2.316-2.329a1 1 0 0 1 1.382.304zm9.695-.304c.993.633 1.772 1.41 2.322 2.329.54.899.912 2.018 1.127 3.355a1 1 0 0 1-1.974.318c-.178-1.102-.47-1.983-.868-2.645-.386-.643-.943-1.199-1.683-1.67a1 1 0 1 1 1.076-1.687z"/>
</svg>
