<svg xmlns="http://www.w3.org/2000/svg" width="32" height="32" viewBox="0 0 32 32">
    <path fill="#222" fill-rule="evenodd" d="M15.5 7a8.5 8.5 0 0 1 8.5 8.5c0 .848-.373 2.355-.7 3.29.221.63.419 1.36.652 2.48a2.267 2.267 0 0 1-2.676 2.683 33.802 33.802 0 0 1-2.587-.618c-.973.323-2.457.665-3.19.665a8.5 8.5 0 1 1 0-17zm0 2a6.5 6.5 0 1 0 0 13c.706 0 2.678-.565 2.985-.724l.088-.045c.307-.145.182.1 3.427.769-.73-3.504-1.12-2.754-.73-3.504.066-.127.73-2.069.73-2.996A6.5 6.5 0 0 0 15.5 9zm2 7a1 1 0 0 1 0 2h-4a1 1 0 0 1 0-2h4zm0-3a1 1 0 0 1 0 2h-4a1 1 0 0 1 0-2h4z"/>
</svg>
