<svg xmlns="http://www.w3.org/2000/svg" width="32" height="32" viewBox="0 0 32 32">
    <path fill="#222" fill-rule="evenodd" d="M18 7a1 1 0 0 1 1 1v1.997l.126.007a1 1 0 0 1 .512.222l.285.237c.468.387.893.833 1.27 1.322l1.36-.68a1 1 0 0 1 .894 1.79l-1.222.612c.359.789.604 1.632.712 2.493H24a1 1 0 0 1 0 2h-1.054a8.85 8.85 0 0 1-.658 2.526l1.16.58a1 1 0 0 1-.895 1.788l-1.271-.634C20.008 23.934 18.129 25 16 25s-4.008-1.066-5.282-2.74l-1.27.634a1 1 0 0 1-.895-1.788l1.159-.58A8.85 8.85 0 0 1 9.054 18H8a1 1 0 0 1 0-2h1.064c.11-.858.357-1.7.718-2.49l-1.23-.616a1 1 0 0 1 .895-1.788l1.367.683c.376-.49.8-.938 1.266-1.327l.278-.233A1 1 0 0 1 13 9.996V8a1 1 0 0 1 2 0l-.001 2h.782l.09.001 1.136.002L17 8a1 1 0 0 1 1-1zm-4.637 4.996C11.943 13.184 11 15.12 11 17c0 3.34 2.26 6 5 6s5-2.66 5-6c0-1.898-.932-3.819-2.354-4.998-.222.004-1.072.003-2.779 0l-.36-.002-2.144-.004z"/>
</svg>
