<?xml version="1.0" encoding="UTF-8"?>
<svg width="32px" height="32px" viewBox="0 0 32 32" version="1.1" xmlns="http://www.w3.org/2000/svg" xmlns:xlink="http://www.w3.org/1999/xlink">
    <!-- Generator: sketchtool 59 (101010) - https://sketch.com -->
    <title>6497586B-FF0D-4A5F-93C9-740E51B567A6</title>
    <desc>Created with sketchtool.</desc>
    <g id="Guide" stroke="none" stroke-width="1" fill="none" fill-rule="evenodd">
        <g id="icons" transform="translate(-712.000000, -232.000000)" fill="#222222">
            <g id=".platform/icon/clip" transform="translate(712.000000, 232.000000)">
                <g id="Path-2">
                    <path d="M15.1407411,8.28226411 C15.5248949,7.90269425 16.1440153,7.90641028 16.5235851,8.2905641 C16.903155,8.67471792 16.899439,9.29383829 16.5152851,9.67340815 C13.7270896,12.4283332 11.8008228,14.3604607 10.7407,15.4653477 C9.58370137,16.6712011 9.73807503,18.9806671 10.9987607,20.1850713 C12.3949234,21.5189045 14.5024396,21.5559356 16.2191015,19.9333035 C16.7131016,19.4663621 17.2464917,18.9487124 17.8159424,18.3847163 C18.0146203,18.1879414 18.2172443,17.985962 18.4237469,17.7788987 C19.7068057,16.4923564 19.5570597,16.6124516 21.5002742,14.5792338 C22.2918489,13.7509961 22.1793018,12.477671 21.3794991,11.6332865 C20.7156823,10.9324679 19.313371,10.902355 18.4532079,11.6843679 C17.4318175,12.6129597 15.7479888,14.3196455 13.5550103,16.5840613 C12.9818655,17.1758766 13.0232731,17.6264426 13.3393228,17.8750848 C13.6112341,18.0890025 14.1577293,18.0380399 14.6077826,17.5424869 C15.2212529,16.8669956 16.8616817,15.2262672 19.5535726,12.5942907 C19.9397144,12.2167434 20.5588068,12.2237107 20.936354,12.6098524 C21.3139013,12.9959942 21.3069341,13.6150866 20.9207923,13.9926338 C18.261806,16.5924381 16.6318794,18.2226622 16.0555161,18.8572951 C14.9207862,20.1067447 13.2152254,20.2657943 12.1301121,19.4121153 C10.9196943,18.4598569 10.7546943,16.6644525 12.1501589,15.2235299 C14.3783777,12.9227259 16.072167,11.2059939 17.1376377,10.2373267 C18.7754338,8.74833274 21.3938383,8.8045598 22.7993424,10.288408 C24.2684319,11.8393861 24.4847738,14.2870147 22.9140812,15.9304566 C20.9610099,17.9739877 21.104804,17.8600576 19.8084893,19.1598917 C19.5992067,19.3697425 19.3937406,19.574555 19.1921406,19.774224 C18.6124744,20.3483378 18.0683508,20.8764042 17.5624983,21.3545487 C15.0795792,23.7014666 11.7878375,23.6436275 9.64781656,21.5991446 C7.632014,19.6733345 7.39500236,16.1275851 9.32954014,14.1113606 C10.4051252,12.9903585 12.3407872,11.0488073 15.1407411,8.28226411 Z"></path>
                </g>
            </g>
        </g>
    </g>
</svg>