<?xml version="1.0" encoding="UTF-8"?>
<svg width="32px" height="33px" viewBox="0 0 32 33" version="1.1" xmlns="http://www.w3.org/2000/svg" xmlns:xlink="http://www.w3.org/1999/xlink">
    <!-- Generator: sketchtool 59 (101010) - https://sketch.com -->
    <title>32D0E9DD-C6E0-4255-A3DE-7D5000CE329D</title>
    <desc>Created with sketchtool.</desc>
    <g id="Guide" stroke="none" stroke-width="1" fill="none" fill-rule="evenodd">
        <g id="icons" transform="translate(-824.000000, -119.000000)" fill="#222222">
            <g id=".platform/icon/code" transform="translate(824.000000, 120.000000)">
                <g transform="translate(0.000000, -0.000000)" id="Combined-Shape">
                    <path d="M12.7071068,10.2928932 C13.0976311,10.6834175 13.0976311,11.3165825 12.7071068,11.7071068 L8.415,16 L12.7071068,20.2928932 C13.0976311,20.6834175 13.0976311,21.3165825 12.7071068,21.7071068 C12.3165825,22.0976311 11.6834175,22.0976311 11.2928932,21.7071068 L6.29289322,16.7071068 C5.90236893,16.3165825 5.90236893,15.6834175 6.29289322,15.2928932 L11.2928932,10.2928932 C11.6834175,9.90236893 12.3165825,9.90236893 12.7071068,10.2928932 Z M20.7071068,10.2928932 L25.7071068,15.2928932 L25.7071068,15.2928932 C26.0976311,15.6834175 26.0976311,16.3165825 25.7071068,16.7071068 L20.7071068,21.7071068 C20.3165825,22.0976311 19.6834175,22.0976311 19.2928932,21.7071068 C18.9023689,21.3165825 18.9023689,20.6834175 19.2928932,20.2928932 L23.585,16 L19.2928932,11.7071068 C18.9023689,11.3165825 18.9023689,10.6834175 19.2928932,10.2928932 C19.6834175,9.90236893 20.3165825,9.90236893 20.7071068,10.2928932 Z"></path>
                </g>
            </g>
        </g>
    </g>
</svg>