<svg xmlns="http://www.w3.org/2000/svg" width="32" height="32" viewBox="0 0 32 32">
    <path fill="#222" fill-rule="evenodd" d="M15 16h.018c.024 0 .048.002.071.004L15 16a1.008 1.008 0 0 1 .617.213c.063.05.12.107.17.17l-.08-.09a1.008 1.008 0 0 1 .293.689V22a1 1 0 0 1-2 0l-.001-2.585-5.292 5.292a1 1 0 1 1-1.414-1.414L12.584 18H10a1 1 0 0 1 0-2h5zm9.707-8.707a1 1 0 0 1 0 1.414L19.414 14H22a1 1 0 0 1 0 2h-5.033l-.052-.004-.032-.003-.036-.005a1.003 1.003 0 0 1-.023-.004l-.023-.004a.993.993 0 0 1-.59-.365l.082.092a1.008 1.008 0 0 1-.292-.674L16 15v-5a1 1 0 0 1 2 0l-.001 2.585 5.294-5.292a1 1 0 0 1 1.414 0z"/>
</svg>
