<?xml version="1.0" encoding="UTF-8"?>
<svg width="32px" height="32px" viewBox="0 0 32 32" version="1.1" xmlns="http://www.w3.org/2000/svg" xmlns:xlink="http://www.w3.org/1999/xlink">
    <!-- Generator: sketchtool 59 (101010) - https://sketch.com -->
    <title>E4BC52CF-AA60-4693-9DF1-BBF6B8E8EFDB</title>
    <desc>Created with sketchtool.</desc>
    <g id="Guide" stroke="none" stroke-width="1" fill="none" fill-rule="evenodd">
        <g id="icons" transform="translate(-824.000000, -176.000000)" fill="#222222">
            <g id=".platform/icon/comment" transform="translate(824.000000, 176.000000)">
                <g id="Combined-Shape">
                    <path d="M16.3939193,7.08085497 C16.9015491,7.29841059 17.1367007,7.88628952 16.919145,8.3939193 L10.919145,24.3939193 C10.7015894,24.9015491 10.1137105,25.1367007 9.6060807,24.919145 C9.09845092,24.7015894 8.86329935,24.1137105 9.08085497,23.6060807 L15.080855,7.6060807 C15.2984106,7.09845092 15.8862895,6.86329935 16.3939193,7.08085497 Z M22.3939193,7.08085497 C22.9015491,7.29841059 23.1367007,7.88628952 22.919145,8.3939193 L16.919145,24.3939193 C16.7015894,24.9015491 16.1137105,25.1367007 15.6060807,24.919145 C15.0984509,24.7015894 14.8632993,24.1137105 15.080855,23.6060807 L21.080855,7.6060807 C21.2984106,7.09845092 21.8862895,6.86329935 22.3939193,7.08085497 Z"></path>
                </g>
            </g>
        </g>
    </g>
</svg>