<svg xmlns="http://www.w3.org/2000/svg" width="32" height="32" viewBox="0 0 32 32">
    <path fill="#222" fill-rule="evenodd" d="M20.999 8a2.995 2.995 0 0 1 2.997 3v.29a5859.356 5859.356 0 0 0 .008 4.71c0 1.7-1.396 3-3.005 3H19v2a3 3 0 0 1-3 3h-5a3 3 0 0 1-3-3v-5a3 3 0 0 1 3-3h2v-2c0-1.645 1.32-3 2.999-3h5zM16 15h-5a1 1 0 0 0-1 1v5a1 1 0 0 0 1 1h5a1 1 0 0 0 1-1v-5a1 1 0 0 0-1-1zm4.999-5h-5A.993.993 0 0 0 15 11v2h.999c1.709 0 3 1.405 3 3v.34l-.003.66h2.003c.5 0 1.005-.406 1.005-1v-.54L21.995 11c0-.538-.427-1-.997-1z"/>
</svg>
