<?xml version="1.0" encoding="UTF-8"?>
<svg width="32px" height="32px" viewBox="0 0 32 32" version="1.1" xmlns="http://www.w3.org/2000/svg" xmlns:xlink="http://www.w3.org/1999/xlink">
    <!-- Generator: sketchtool 59 (101010) - https://sketch.com -->
    <title>8748C4CF-6BE4-40F0-980A-377596D2D179</title>
    <desc>Created with sketchtool.</desc>
    <g id="Guide" stroke="none" stroke-width="1" fill="none" fill-rule="evenodd">
        <g id="icons" transform="translate(-656.000000, -120.000000)" fill="#222222">
            <g id=".platform/icon/down" transform="translate(656.000000, 120.000000)">
                <g id="Combined-Shape">
                    <path d="M8.70710678,12.2928932 L16,19.585 L23.2928932,12.2928932 C23.6834175,11.9023689 24.3165825,11.9023689 24.7071068,12.2928932 C25.0976311,12.6834175 25.0976311,13.3165825 24.7071068,13.7071068 L16.7071068,21.7071068 L16.7071068,21.7071068 C16.5569051,21.8573084 16.3708099,21.9497402 16.1764315,21.9844021 L16.0590314,21.9982669 L16.0590314,21.9982669 L15.9409686,21.9982669 C15.705064,21.9844021 15.4731352,21.8873488 15.2928932,21.7071068 L7.29289322,13.7071068 C6.90236893,13.3165825 6.90236893,12.6834175 7.29289322,12.2928932 C7.68341751,11.9023689 8.31658249,11.9023689 8.70710678,12.2928932 Z"></path>
                </g>
            </g>
        </g>
    </g>
</svg>