<?xml version="1.0" encoding="UTF-8"?>
<svg width="32px" height="32px" viewBox="0 0 32 32" version="1.1" xmlns="http://www.w3.org/2000/svg" xmlns:xlink="http://www.w3.org/1999/xlink">
    <!-- Generator: sketchtool 59 (101010) - https://sketch.com -->
    <title>4E2E4B8D-E05A-4A3B-847B-FC95D0F269E0</title>
    <desc>Created with sketchtool.</desc>
    <g id="Guide" stroke="none" stroke-width="1" fill="none" fill-rule="evenodd">
        <g id="icons" transform="translate(-824.000000, -288.000000)" fill="#222222">
            <g id=".platform/icon/download" transform="translate(824.000000, 288.000000)">
                <g id="Combined-Shape">
                    <path d="M21,22 C21.5522847,22 22,22.4477153 22,23 C22,23.5522847 21.5522847,24 21,24 L11,24 C10.4477153,24 10,23.5522847 10,23 C10,22.4477153 10.4477153,22 11,22 L21,22 Z M16,8 C16.5522847,8 17,8.44771525 17,9 L17,18.585 L20.2928932,15.2928932 C20.6834175,14.9023689 21.3165825,14.9023689 21.7071068,15.2928932 C22.0976311,15.6834175 22.0976311,16.3165825 21.7071068,16.7071068 L16.7071068,21.7071068 C16.6786405,21.7355731 16.6484659,21.7623312 16.6167501,21.787214 L16.7071068,21.7071068 C16.6717127,21.7425008 16.6343256,21.774687 16.5953066,21.8036654 C16.5711307,21.8215099 16.546275,21.8382813 16.5206602,21.8539326 C16.5086131,21.8613931 16.4963944,21.8685012 16.4840621,21.8753288 C16.4642939,21.8862061 16.4438914,21.8966234 16.4230991,21.9063462 C16.4060985,21.914321 16.3887956,21.9218036 16.371336,21.9287745 C16.3515792,21.9366843 16.3317977,21.9438775 16.3117364,21.9504533 C16.2968513,21.9552713 16.2814633,21.9599023 16.265993,21.9641549 C16.2444365,21.9701664 16.2227461,21.9753602 16.2007941,21.9798348 C16.1926434,21.981408 16.1845447,21.9829554 16.1764315,21.9844021 L16.1489612,21.9889807 C16.1281144,21.9920941 16.1070574,21.994564 16.085811,21.9963697 L16.0590314,21.9982669 L16.0590314,21.9982669 L16.0335352,21.9994483 C16.0224019,21.9998151 16.0112225,22 16,22 L15.967,21.998 L15.9409686,21.9982669 C15.9318954,21.9977336 15.922828,21.9970773 15.9137692,21.9962979 L16,22 C15.9493797,22 15.8996379,21.9962388 15.8510388,21.9889807 C15.834051,21.9863719 15.8166247,21.9832978 15.7992742,21.9797599 C15.7772539,21.9753602 15.7555635,21.9701664 15.7341604,21.964279 C15.7185367,21.9599023 15.7031487,21.9552713 15.6878575,21.9502619 C15.6682023,21.9438775 15.6484208,21.9366843 15.6289415,21.928896 C15.6112044,21.9218036 15.5939015,21.914321 15.5767785,21.9063266 C15.5561086,21.8966234 15.5357061,21.8862061 15.515723,21.8751242 C15.5036056,21.8685012 15.4913869,21.8613931 15.4792912,21.8540045 C15.453725,21.8382813 15.4288693,21.8215099 15.4048407,21.8036865 C15.397397,21.7982466 15.3901576,21.7927155 15.3829777,21.7870723 C15.3515341,21.7623312 15.3213595,21.7355731 15.2928932,21.7071068 L10.2928932,16.7071068 C9.90236893,16.3165825 9.90236893,15.6834175 10.2928932,15.2928932 C10.6834175,14.9023689 11.3165825,14.9023689 11.7071068,15.2928932 L15,18.585 L15,9 C15,8.44771525 15.4477153,8 16,8 Z"></path>
                </g>
            </g>
        </g>
    </g>
</svg>