<svg xmlns="http://www.w3.org/2000/svg" width="32" height="32" viewBox="0 0 32 32">
    <path fill="#222" fill-rule="evenodd" d="M9 17a1 1 0 0 1 1 1v2.584l3.293-3.291a1 1 0 0 1 1.414 1.414L11.414 22H14a1 1 0 0 1 0 2H8.968l-.054-.004-.03-.003-.037-.005a1.003 1.003 0 0 1-.023-.004L8.8 23.98a.993.993 0 0 1-.59-.365l.082.092A1.008 1.008 0 0 1 8 23.02V18a1 1 0 0 1 1-1zm14-9h.02c.023 0 .046.002.07.004L23 8a1.008 1.008 0 0 1 .617.213c.063.05.12.107.17.17l-.08-.09a1.008 1.008 0 0 1 .292.675L24 9v5a1 1 0 0 1-2 0v-2.586l-3.293 3.293a1 1 0 0 1-1.414-1.414L20.584 10H18a1 1 0 0 1 0-2h5z"/>
</svg>
