<svg xmlns="http://www.w3.org/2000/svg" width="32" height="32" viewBox="0 0 32 32">
    <path fill="#222" fill-rule="evenodd" d="M14 13a1 1 0 0 1 0 2h-3a1 1 0 0 0-1 1v5a1 1 0 0 0 1 1h5.004a1 1 0 0 0 1-1v-3a1 1 0 0 1 2 0v3a3 3 0 0 1-3 3H11a3 3 0 0 1-3-3v-5a3 3 0 0 1 3-3h3zm9-5h.02c.021 0 .043.002.064.004L23 8a1.008 1.008 0 0 1 .176.016l.023.004a.993.993 0 0 1 .414.19l.002.001.01.009c.06.048.115.103.162.163l-.08-.09a1.008 1.008 0 0 1 .292.675L24 9v5a1 1 0 0 1-2 0v-2.586l-4.293 4.293a1 1 0 0 1-1.414-1.414L20.584 10H18a1 1 0 0 1 0-2h5z"/>
</svg>
