<?xml version="1.0" encoding="UTF-8"?>
<svg width="32px" height="32px" viewBox="0 0 32 32" version="1.1" xmlns="http://www.w3.org/2000/svg" xmlns:xlink="http://www.w3.org/1999/xlink">
    <!-- Generator: sketchtool 59 (101010) - https://sketch.com -->
    <title>82087579-56D7-41E2-AC0D-7B53DF82398C</title>
    <desc>Created with sketchtool.</desc>
    <g id="Guide" stroke="none" stroke-width="1" fill="none" fill-rule="evenodd">
        <g id="icons" transform="translate(-376.000000, -568.000000)" fill="#222222">
            <g id=".platform/icon/hook" transform="translate(376.000000, 568.000000)">
                <g id="Combined-Shape">
                    <path d="M14,6 C16.209139,6 18,7.790861 18,10 C18,11.8635652 16.7256022,13.429479 15.0007613,13.8737865 L15,21.5 C15,22.8807119 16.1192881,24 17.5,24 C18.8807119,24 20,22.8807119 20,21.5 C20,20.9477153 20.4477153,20.5 21,20.5 C21.5522847,20.5 22,20.9477153 22,21.5 C22,23.9852814 19.9852814,26 17.5,26 C15.0147186,26 13,23.9852814 13,21.5 L13,21.5 L13.0002435,13.8740452 C11.2748927,13.4300871 10,11.8639271 10,10 C10,7.790861 11.790861,6 14,6 Z M14,8 C12.8954305,8 12,8.8954305 12,10 C12,11.1045695 12.8954305,12 14,12 C15.1045695,12 16,11.1045695 16,10 C16,8.8954305 15.1045695,8 14,8 Z"></path>
                </g>
            </g>
        </g>
    </g>
</svg>