<?xml version="1.0" encoding="UTF-8"?>
<svg width="32px" height="32px" viewBox="0 0 32 32" version="1.1" xmlns="http://www.w3.org/2000/svg" xmlns:xlink="http://www.w3.org/1999/xlink">
    <!-- Generator: sketchtool 59 (101010) - https://sketch.com -->
    <title>E81555B5-F8DF-4609-8836-D739C7E1FA04</title>
    <desc>Created with sketchtool.</desc>
    <g id="Guide" stroke="none" stroke-width="1" fill="none" fill-rule="evenodd">
        <g id="icons" transform="translate(-768.000000, -232.000000)" fill="#222222">
            <g id=".platform/icon/import" transform="translate(768.000000, 232.000000)">
                <g id="Combined-Shape">
                    <path d="M23.0023563,17.9961253 C23.5546411,17.9961253 24.0023563,18.4438405 24.0023563,18.9961253 L24.0023563,20.9961253 C24.0023563,22.6529795 22.6592106,23.9961253 21.0023563,23.9961253 L11,23.9961253 C9.33961045,23.99417 7.99804898,22.6494419 8,20.9925888 L8.00235702,18.9949464 C8.00300807,18.4426621 8.45125079,17.9954749 9.00353515,17.9961253 C9.55581952,17.996777 10.0030067,18.4450197 10.0023556,18.9973041 L10,20.9949464 C9.99934969,21.5472308 10.4465368,21.9954735 10.9988212,21.9961253 L21.0023563,21.9961253 C21.5546411,21.9961253 22.0023563,21.54841 22.0023563,20.9961253 L22.0023563,18.9961253 C22.0023563,18.4438405 22.4500716,17.9961253 23.0023563,17.9961253 Z M16.0023563,8 C16.5546411,8 17.0023563,8.44771525 17.0023563,9 L17.002,16.585 L19.2952495,14.2928932 C19.6857738,13.9023689 20.3189388,13.9023689 20.7094631,14.2928932 C21.0999874,14.6834175 21.0999874,15.3165825 20.7094631,15.7071068 L16.7094631,19.7071068 C16.6824492,19.7341207 16.6538968,19.7595963 16.6239488,19.7833908 L16.7094631,19.7071068 C16.6699984,19.7465715 16.6280557,19.7820481 16.5841359,19.8135366 C16.5694838,19.8239501 16.5541123,19.8343431 16.5384445,19.844312 L16.5260352,19.8521831 L16.5260352,19.8521831 L16.5137593,19.8596192 C16.5059313,19.864284 16.4980533,19.8688325 16.4901278,19.8732648 C16.4690676,19.8849663 16.44756,19.8960049 16.4256182,19.9062701 C16.4069514,19.9150274 16.3879284,19.9231947 16.3687189,19.9307447 C16.3593207,19.9344661 16.3495039,19.9381594 16.3396151,19.9417014 L16.3215771,19.9479137 C16.3014317,19.9546807 16.2811136,19.9607883 16.2606564,19.9662366 C16.2513615,19.9688043 16.2415326,19.9712701 16.2316471,19.9735893 L16.2028731,19.9798025 C16.1839365,19.9836596 16.1649099,19.9869643 16.1458189,19.9897165 C16.1270841,19.9924869 16.1077058,19.9947092 16.0881673,19.9963697 C16.0702067,19.9978612 16.0528017,19.9988858 16.0353845,19.9994578 C16.0247582,19.9998151 16.0135789,20 16.0023563,20 L15.9693282,19.9994578 C15.9519851,19.9988882 15.934654,19.9978699 15.9173539,19.9964029 L15.8857352,19.9932723 L15.8857352,19.9932723 L15.8605993,19.9899609 C15.8490158,19.9883113 15.8374557,19.9864584 15.8259248,19.9844021 L15.7988294,19.9792738 C15.7795306,19.9752836 15.7604352,19.9707372 15.7415607,19.9656522 C15.7316989,19.9629237 15.7210844,19.9598876 15.7105126,19.9566726 L15.6827338,19.9478317 C15.6668571,19.9424799 15.6511587,19.9367403 15.63565,19.9306242 C15.6165012,19.9230835 15.5972008,19.9147866 15.5781242,19.9058541 C15.5596553,19.8971507 15.5415002,19.8879406 15.5236742,19.8782035 C15.5088076,19.8701866 15.493586,19.8613648 15.4785563,19.8521085 C15.4740331,19.8492152 15.4701416,19.8467766 15.4662681,19.844312 L15.4278573,19.8187072 C15.41274,19.8080726 15.3978515,19.7969701 15.3832118,19.7853997 C15.3526117,19.7611958 15.3231123,19.7349696 15.2952495,19.7071068 L11.2952495,15.7071068 C10.9047252,15.3165825 10.9047252,14.6834175 11.2952495,14.2928932 C11.6857738,13.9023689 12.3189388,13.9023689 12.7094631,14.2928932 L15.002,16.585 L15.0023563,9 C15.0023563,8.44771525 15.4500716,8 16.0023563,8 Z"></path>
                </g>
            </g>
        </g>
    </g>
</svg>