<?xml version="1.0" encoding="UTF-8"?>
<svg width="32px" height="32px" viewBox="0 0 32 32" version="1.1" xmlns="http://www.w3.org/2000/svg" xmlns:xlink="http://www.w3.org/1999/xlink">
    <!-- Generator: sketchtool 59 (101010) - https://sketch.com -->
    <title>D9DB2151-6110-4430-B70E-8EB61095F3B7</title>
    <desc>Created with sketchtool.</desc>
    <g id="Guide" stroke="none" stroke-width="1" fill="none" fill-rule="evenodd">
        <g id="icons" transform="translate(-824.000000, -568.000000)" fill="#222222">
            <g id=".platform/icon/license" transform="translate(824.000000, 568.000000)">
                <g id="Oval">
                    <path d="M16,6 C19.8659932,6 23,9.13400675 23,13 C23,14.9069832 22.2374445,16.635862 21.0006263,17.8983435 L21,25 C21,25.743382 20.2176875,26.2268777 19.5527864,25.8944272 L19.5527864,25.8944272 L16,24.118034 L12.4472136,25.8944272 C11.7823125,26.2268777 11,25.743382 11,25 L11,25 L10.9984004,17.8973499 C9.76215552,16.6349549 9,14.906483 9,13 C9,9.13400675 12.1340068,6 16,6 Z M18.999733,19.3264957 C18.0905455,19.7583563 17.0734922,20 16,20 C14.926113,20 13.9087064,19.7581785 12.9992639,19.3260191 L13,23.381966 L15.5527864,22.1055728 C15.8343139,21.9648091 16.1656861,21.9648091 16.4472136,22.1055728 L16.4472136,22.1055728 L19,23.381966 Z M16,8 C13.2385763,8 11,10.2385763 11,13 C11,15.7614237 13.2385763,18 16,18 C18.7614237,18 21,15.7614237 21,13 C21,10.2385763 18.7614237,8 16,8 Z"></path>
                </g>
            </g>
        </g>
    </g>
</svg>