<svg xmlns="http://www.w3.org/2000/svg" width="32" height="32" viewBox="0 0 32 32">
    <path fill="#222" fill-rule="evenodd" d="M19.004 6a3 3 0 0 1 3 3v14a3 3 0 0 1-3 3H15a1 1 0 0 1 0-2h4.004a1 1 0 0 0 1-1V9a1 1 0 0 0-1-1H15a1 1 0 0 1 0-2h4.004zm-4.297 5.293l4 4c.028.028.054.057.079.088l-.079-.088a1.008 1.008 0 0 1 .292.675L19 16v.033l-.004.052L19 16a1.008 1.008 0 0 1-.146.52l-.01.016-.035.052a1 1 0 0 1-.024.031l-.005.006-.073.082-4 4a1 1 0 0 1-1.414-1.414L15.584 17H9a1 1 0 0 1 0-2h6.585l-2.292-2.293a1 1 0 0 1 1.414-1.414z"/>
</svg>
