<svg xmlns="http://www.w3.org/2000/svg" width="32" height="32" viewBox="0 0 32 32">
    <path fill="#222" fill-rule="evenodd" d="M19.004 6a3 3 0 0 1 3 3v14a3 3 0 0 1-3 3H15a1 1 0 0 1 0-2h4.004a1 1 0 0 0 1-1V9a1 1 0 0 0-1-1H15a1 1 0 0 1 0-2h4.004zm-5.297 5.293a1 1 0 0 1 0 1.414L11.414 15H18a1 1 0 0 1 0 2h-6.585l2.292 2.293a1 1 0 0 1-1.414 1.414l-4-4-.073-.082a1.003 1.003 0 0 1-.006-.006l.079.088A1.008 1.008 0 0 1 8 16v-.018c0-.024.002-.048.004-.071L8 16a1.008 1.008 0 0 1 .21-.613c.029-.037.055-.066.083-.094l4-4a1 1 0 0 1 1.414 0z"/>
</svg>
