<?xml version="1.0" encoding="UTF-8"?>
<svg width="32px" height="32px" viewBox="0 0 32 32" version="1.1" xmlns="http://www.w3.org/2000/svg" xmlns:xlink="http://www.w3.org/1999/xlink">
    <!-- Generator: sketchtool 59 (101010) - https://sketch.com -->
    <title>2B3D535E-791C-4A4E-B14D-15F8632FB494</title>
    <desc>Created with sketchtool.</desc>
    <g id="Guide" stroke="none" stroke-width="1" fill="none" fill-rule="evenodd">
        <g id="icons" transform="translate(-768.000000, -512.000000)" fill="#222222">
            <g id=".platform/icon/mail" transform="translate(768.000000, 512.000000)">
                <g id="Combined-Shape">
                    <path d="M23,9 C24.6568542,9 26,10.3431458 26,12 L26,20 C26,21.6568542 24.6568542,23 23,23 L9,23 C7.34314575,23 6,21.6568542 6,20 L6,12 C6,10.3431458 7.34314575,9 9,9 L23,9 Z M8,12.178 L8,20 C8,20.5522847 8.44771525,21 9,21 L23,21 C23.5522847,21 24,20.5522847 24,20 L24,12.18 L16.5298926,16.8480647 C16.2416353,17.0281753 15.8845116,17.0481501 15.5809835,16.9080033 L15.4699119,16.8479426 L8,12.178 Z M22.113,11 L9.888,11 L16.0001359,14.8207598 L22.113,11 Z"></path>
                </g>
            </g>
        </g>
    </g>
</svg>