<svg xmlns="http://www.w3.org/2000/svg" width="32" height="32" viewBox="0 0 32 32">
    <path fill="#222" fill-rule="evenodd" d="M19.293 8.293a1 1 0 0 1 1.414 0l4 4c.026.026.05.053.073.082l.005.006a1.152 1.152 0 0 1 .09.135 1.051 1.051 0 0 1 .114.334c.007.048.011.099.011.15l-.004-.09.004.072v.038l-.002.039-.001.02-.001.01c0 .01-.002.019-.003.028l-.003.026-.006.033a1.002 1.002 0 0 1-.13.345l-.01.015-.035.052c-.03.042-.064.082-.102.12l.079-.09a1.004 1.004 0 0 1-.006.007l-.073.082-4 4a1 1 0 0 1-1.414-1.414l2.266-2.267c-4.846.12-6.793.7-8.81 2.687C10.905 18.528 10 20.606 10 23a1 1 0 0 1-2 0c0-2.94 1.127-5.528 3.345-7.713 2.501-2.462 4.818-3.137 10.265-3.263l-2.317-2.317a1 1 0 0 1 0-1.414z"/>
</svg>
