<?xml version="1.0" encoding="UTF-8"?>
<svg width="32px" height="32px" viewBox="0 0 32 32" version="1.1" xmlns="http://www.w3.org/2000/svg" xmlns:xlink="http://www.w3.org/1999/xlink">
    <!-- Generator: sketchtool 59 (101010) - https://sketch.com -->
    <title>B534C615-549F-4747-9CE1-22F22F437290</title>
    <desc>Created with sketchtool.</desc>
    <g id="Guide" stroke="none" stroke-width="1" fill="none" fill-rule="evenodd">
        <g id="icons" transform="translate(-656.000000, -568.000000)" fill="#222222">
            <g id=".platform/icon/nocode" transform="translate(656.000000, 568.000000)">
                <g id="Combined-Shape">
                    <path d="M13,8 C13.5522847,8 14,8.44771525 14,9 C14,9.55228475 13.5522847,10 13,10 L13,10 L12,10 C10.8954305,10 10,10.8954305 10,12 L10,12 L10,13.145898 C10,14.2364054 9.55653441,15.2595462 8.80267862,16 L8.80267862,16 L8.95941978,16.162917 C9.61762406,16.8869605 10,17.841488 10,18.854102 L10,18.854102 L10,20 C10,20.1787972 10.0234621,20.3521146 10.0674756,20.5170412 L20.5150417,10.0669431 C20.3507139,10.0232729 20.1780748,10 20,10 L19,10 C18.4477153,10 18,9.55228475 18,9 C18,8.44771525 18.4477153,8 19,8 L20,8 C20.740982,8 21.434906,8.20147964 22.0299763,8.55264335 L22.2880467,8.29301263 C22.678505,7.9024224 23.31167,7.90231549 23.7022602,8.29277383 C24.0928504,8.68323217 24.0929574,9.31639714 23.702499,9.70698737 L23.702499,9.70698737 L23.4443788,9.96498596 C23.7973811,10.5611761 24,11.256926 24,12 L24,13.145898 C24,13.9034422 24.4280048,14.5959684 25.1055728,14.9347524 L25.4472136,15.1055728 C26.1842621,15.4740971 26.1842621,16.5259029 25.4472136,16.8944272 L25.1055728,17.0652476 C24.4280048,17.4040316 24,18.0965578 24,18.854102 L24,20 C24,22.209139 22.209139,24 20,24 L19,24 C18.4477153,24 18,23.5522847 18,23 C18,22.4477153 18.4477153,22 19,22 L20,22 C21.1045695,22 22,21.1045695 22,20 L22,18.854102 C22,17.841488 22.3823759,16.8869605 23.0405802,16.162917 L23.1973214,16 C22.4434656,15.2595462 22,14.2364054 22,13.145898 L22,12 C22,11.819758 21.9761572,11.6450847 21.9314534,11.4789622 L11.4819593,21.9322574 C11.6471852,21.976443 11.8208416,22 12,22 L12,22 L13,22 C13.5522847,22 14,22.4477153 14,23 C14,23.5522847 13.5522847,24 13,24 L13,24 L12,24 C11.2581812,24 10.5635268,23.798065 9.96800804,23.4461664 L9.70722617,23.7069874 C9.31676783,24.0975776 8.68360286,24.0976845 8.29301263,23.7072262 C7.9024224,23.3167678 7.90231549,22.6836029 8.29277383,22.2930126 L8.29277383,22.2930126 L8.55383363,22.031992 C8.20193496,21.4364732 8,20.7418188 8,20 L8,20 L8,18.854102 C8,18.0965578 7.57199525,17.4040316 6.89442719,17.0652476 L6.89442719,17.0652476 L6.5527864,16.8944272 C5.81573787,16.5259029 5.81573787,15.4740971 6.5527864,15.1055728 L6.5527864,15.1055728 L6.89442719,14.9347524 C7.57199525,14.5959684 8,13.9034422 8,13.145898 L8,13.145898 L8,12 C8,9.790861 9.790861,8 12,8 L12,8 Z"></path>
                </g>
            </g>
        </g>
    </g>
</svg>