<?xml version="1.0" encoding="UTF-8"?>
<svg width="32px" height="32px" viewBox="0 0 32 32" version="1.1" xmlns="http://www.w3.org/2000/svg" xmlns:xlink="http://www.w3.org/1999/xlink">
    <!-- Generator: sketchtool 59 (101010) - https://sketch.com -->
    <title>9BE698EE-DF3E-42BD-A877-4B509CC435A8</title>
    <desc>Created with sketchtool.</desc>
    <g id="Guide" stroke="none" stroke-width="1" fill="none" fill-rule="evenodd">
        <g id="icons" transform="translate(-936.000000, -120.000000)" fill="#222222">
            <g id=".platform/icon/notification-success" transform="translate(936.000000, 120.000000)">
                <g id="Combined-Shape">
                    <path d="M16,0 C24.836556,0 32,7.163444 32,16 C32,24.836556 24.836556,32 16,32 C7.163444,32 -8.8817842e-16,24.836556 -8.8817842e-16,16 C-8.8817842e-16,7.163444 7.163444,0 16,0 Z M14.0594006,21.998245 L14.1764315,21.9844021 L14.1764315,21.9844021 L14.2921975,21.9565646 C14.3061038,21.9523299 14.3199359,21.9477855 14.3336831,21.9429315 C14.395354,21.921108 14.4546908,21.8934146 14.5114029,21.8596192 L14.6131917,21.7900686 L14.6131917,21.7900686 L14.657,21.751 L14.7071068,21.7071068 L23.7071068,12.7071068 C24.0976311,12.3165825 24.0976311,11.6834175 23.7071068,11.2928932 C23.3165825,10.9023689 22.6834175,10.9023689 22.2928932,11.2928932 L22.2928932,11.2928932 L13.999,19.585 L9.70314496,15.2926317 C9.34252769,14.9322811 8.77528641,14.9047614 8.38310806,15.2099314 L8.2889315,15.2931548 C7.89855168,15.6838235 7.89878588,16.3169885 8.28945459,16.7073683 L8.28945459,16.7073683 L13.285,21.699 L13.2928932,21.7071068 C13.4731352,21.8873488 13.705064,21.9844021 13.9409686,21.9982669 L14.0594006,21.998245 L14.0594006,21.998245 Z"></path>
                </g>
            </g>
        </g>
    </g>
</svg>