<?xml version="1.0" encoding="UTF-8"?>
<svg width="32px" height="32px" viewBox="0 0 32 32" version="1.1" xmlns="http://www.w3.org/2000/svg" xmlns:xlink="http://www.w3.org/1999/xlink">
    <!-- Generator: sketchtool 59 (101010) - https://sketch.com -->
    <title>8BA463C2-E8A9-44B4-922A-3570E3FA251A</title>
    <desc>Created with sketchtool.</desc>
    <g id="Guide" stroke="none" stroke-width="1" fill="none" fill-rule="evenodd">
        <g id="icons" transform="translate(-936.000000, -312.000000)" fill="#222222">
            <g id=".platform/icon/notification-error" transform="translate(936.000000, 312.000000)">
                <g id="Combined-Shape">
                    <path d="M16,0 C24.836556,0 32,7.163444 32,16 C32,24.836556 24.836556,32 16,32 C7.163444,32 0,24.836556 0,16 C0,7.163444 7.163444,0 16,0 Z M10.7069824,9.29276885 C10.3163894,8.90231326 9.68322444,8.90242463 9.29276885,9.29301761 C8.90231326,9.68361059 8.90242463,10.3167756 9.29301761,10.7072312 L9.29301761,10.7072312 L14.585,15.997 L9.29301761,21.2878444 C8.93247025,21.6482649 8.90464093,22.2154911 9.20959681,22.607836 L9.29276885,22.7020579 C9.68322444,23.0926509 10.3163894,23.0927623 10.7069824,22.7023067 L10.7069824,22.7023067 L16,17.411 L21.2930176,22.7023067 C21.653565,23.0627272 22.2208009,23.090357 22.6130385,22.7852631 L22.7072312,22.7020579 C23.0976867,22.311465 23.0975754,21.6783 22.7069824,21.2878444 L22.7069824,21.2878444 L17.414,15.997 L22.7069824,10.7072312 C23.0675298,10.3468106 23.0953591,9.77958444 22.7904032,9.38723958 L22.7072312,9.29301761 C22.3167756,8.90242463 21.6836106,8.90231326 21.2930176,9.29276885 L21.2930176,9.29276885 L16,14.583 Z"></path>
                </g>
            </g>
        </g>
    </g>
</svg>