<?xml version="1.0" encoding="UTF-8"?>
<svg width="32px" height="32px" viewBox="0 0 32 32" version="1.1" xmlns="http://www.w3.org/2000/svg" xmlns:xlink="http://www.w3.org/1999/xlink">
    <!-- Generator: sketchtool 59 (101010) - https://sketch.com -->
    <title>75E52A2D-9DDE-42AB-A494-C74488E2AE6A</title>
    <desc>Created with sketchtool.</desc>
    <g id="Guide" stroke="none" stroke-width="1" fill="none" fill-rule="evenodd">
        <g id="icons" transform="translate(-488.000000, -568.000000)" fill="#222222">
            <g id=".platform/icon/boolean" transform="translate(488.000000, 568.000000)">
                <g id="Combined-Shape">
                    <path d="M20,10 C23.3137085,10 26,12.6862915 26,16 C26,19.3137085 23.3137085,22 20,22 C18.4633546,22 17.0616288,21.4223406 16.0001315,20.4723307 C14.939252,21.4219775 13.5371282,22 12,22 C8.6862915,22 6,19.3137085 6,16 C6,12.6862915 8.6862915,10 12,10 C13.5371282,10 14.939252,10.5780225 16.0008689,11.5285648 C17.0616288,10.5776594 18.4633546,10 20,10 Z M20,12 C18.9352546,12 17.9676744,12.4160134 17.2509355,13.094364 C17.7282485,13.9555529 18,14.9460409 18,16 C18,17.0539591 17.7282485,18.0444471 17.2509911,18.9052185 C17.9676744,19.5839866 18.9352546,20 20,20 C22.209139,20 24,18.209139 24,16 C24,13.790861 22.209139,12 20,12 Z"></path>
                </g>
            </g>
        </g>
    </g>
</svg>