<svg xmlns="http://www.w3.org/2000/svg" width="32" height="32" viewBox="0 0 32 32">
    <path fill="#222" fill-rule="evenodd" d="M19.687 9.273a1 1 0 0 1-1.374 1.454C17.041 9.525 14 9.982 14 11c0 .385.468.705 2.055 1.292l.293.108C18.91 13.35 20 14.143 20 16c0 1.11-.398 2.072-1.156 2.857.81.538 1.156 1.164 1.156 2.15 0 3.157-5.326 3.956-7.687 1.727a1 1 0 0 1 1.374-1.454c1.272 1.202 4.313.745 4.313-.273 0-.385-.468-.705-2.055-1.292l-.293-.108c-2.563-.95-3.652-1.743-3.652-3.6 0-1.11.398-2.072 1.156-2.857C12.346 12.612 12 11.986 12 11c0-3.157 5.326-3.956 7.687-1.727zM14 16.007c0 .654.562 1.063 2.348 1.725l.291.108.219.08C17.648 17.394 18 16.775 18 16c0-.654-.562-1.063-2.348-1.725l-.291-.108-.219-.08c-.79.526-1.142 1.145-1.142 1.92z"/>
</svg>
