<?xml version="1.0" encoding="UTF-8"?>
<svg width="32px" height="32px" viewBox="0 0 32 32" version="1.1" xmlns="http://www.w3.org/2000/svg" xmlns:xlink="http://www.w3.org/1999/xlink">
    <!-- Generator: sketchtool 59 (101010) - https://sketch.com -->
    <title>E480FE11-CBD4-4623-9117-2E310113B739</title>
    <desc>Created with sketchtool.</desc>
    <g id="Guide" stroke="none" stroke-width="1" fill="none" fill-rule="evenodd">
        <g id="icons" transform="translate(-824.000000, -400.000000)" fill="#222222">
            <g id=".platform/icon/permission" transform="translate(824.000000, 400.000000)">
                <g id="Combined-Shape">
                    <path d="M17,6 C19.7614237,6 22,8.23857625 22,11 C22,13.4185387 20.2828356,15.4360122 18.0011864,15.8997409 L18,25 C18,25.5522847 17.5522847,26 17,26 C16.4477153,26 16,25.5522847 16,25 L16,24 L14,24 C13.4477153,24 13,23.5522847 13,23 C13,22.4477153 13.4477153,22 14,22 L16,22 L15.999812,15.8999437 C13.7176654,15.4366008 12,13.4188915 12,11 C12,8.23857625 14.2385763,6 17,6 Z M17,8 C15.3431458,8 14,9.34314575 14,11 C14,12.6568542 15.3431458,14 17,14 C18.6568542,14 20,12.6568542 20,11 C20,9.34314575 18.6568542,8 17,8 Z"></path>
                </g>
            </g>
        </g>
    </g>
</svg>