<?xml version="1.0" encoding="UTF-8"?>
<svg width="32px" height="32px" viewBox="0 0 32 32" version="1.1" xmlns="http://www.w3.org/2000/svg" xmlns:xlink="http://www.w3.org/1999/xlink">
    <!-- Generator: sketchtool 59 (101010) - https://sketch.com -->
    <title>7DE8AB7A-91EB-48B6-AA00-CA333EB18FC2</title>
    <desc>Created with sketchtool.</desc>
    <g id="Guide" stroke="none" stroke-width="1" fill="none" fill-rule="evenodd">
        <g id="icons" transform="translate(-320.000000, -456.000000)" fill="#222222">
            <g id=".platform/icon/play" transform="translate(320.000000, 456.000000)">
                <g id="Path">
                    <path d="M9,10.6742172 L9,21.3257828 C9,22.9826371 10.3431458,24.3257828 12,24.3257828 C12.4964674,24.3257828 12.9851743,24.2025713 13.4222995,23.9671961 L23.313039,18.6414133 C24.7718513,17.855899 25.3176672,16.0365128 24.5321529,14.5777005 C24.2538205,14.0607977 23.8299419,13.636919 23.313039,13.3585867 L13.4222995,8.03280386 C11.9634872,7.24728955 10.144101,7.79310541 9.3585867,9.25191769 C9.12321158,9.68904291 9,10.1777497 9,10.6742172 Z M11,10.6742172 C11,10.508728 11.0410705,10.3458257 11.1195289,10.2001173 C11.381367,9.71384657 11.9878291,9.53190796 12.4740998,9.79374606 L22.3648394,15.1195289 C22.5371403,15.2123063 22.6784332,15.3535992 22.7712107,15.5259002 C23.0330488,16.0121709 22.8511101,16.618633 22.3648394,16.8804711 L12.4740998,22.2062539 C12.3283914,22.2847123 12.1654891,22.3257828 12,22.3257828 C11.4477153,22.3257828 11,21.8780676 11,21.3257828 L11,10.6742172 Z"></path>
                </g>
            </g>
        </g>
    </g>
</svg>