<?xml version="1.0" encoding="UTF-8"?>
<svg width="32px" height="32px" viewBox="0 0 32 32" version="1.1" xmlns="http://www.w3.org/2000/svg" xmlns:xlink="http://www.w3.org/1999/xlink">
    <!-- Generator: sketchtool 59 (101010) - https://sketch.com -->
    <title>C783D116-A235-42EE-98B7-5820A32EB496</title>
    <desc>Created with sketchtool.</desc>
    <g id="Guide" stroke="none" stroke-width="1" fill="none" fill-rule="evenodd">
        <g id="icons" transform="translate(-656.000000, -512.000000)" fill="#222222">
            <g id=".platform/icon/plug" transform="translate(656.000000, 512.000000)">
                <g id="Combined-Shape">
                    <path d="M19,8 C19.5522847,8 20,8.44771525 20,9 L20.0009007,12.1710242 C21.1656226,12.5831148 22,13.6941178 22,15 L22,16.5 C22,18.9852814 19.9852814,21 17.5,21 L17,21 L17,21 L17,23 C17,23.5522847 16.5522847,24 16,24 C15.4477153,24 15,23.5522847 15,23 L15,21 L14.5,21 C12.0147186,21 10,18.9852814 10,16.5 L10,15 C10,13.6937479 10.8348501,12.5824856 12.0000889,12.1706743 L12,9 C12,8.44771525 12.4477153,8 13,8 C13.5522847,8 14,8.44771525 14,9 L14,12 L18,12 L18,9 C18,8.44771525 18.4477153,8 19,8 Z M19,14 L13,14 C12.4477153,14 12,14.4477153 12,15 L12,16.5 C12,17.8807119 13.1192881,19 14.5,19 L17.5,19 C18.8807119,19 20,17.8807119 20,16.5 L20,15 C20,14.4477153 19.5522847,14 19,14 Z"></path>
                </g>
            </g>
        </g>
    </g>
</svg>