<?xml version="1.0" encoding="UTF-8"?>
<svg width="32px" height="32px" viewBox="0 0 32 32" version="1.1" xmlns="http://www.w3.org/2000/svg" xmlns:xlink="http://www.w3.org/1999/xlink">
    <!-- Generator: sketchtool 59 (101010) - https://sketch.com -->
    <title>8D83CEBC-FB9D-4844-88B6-BD730A7C5959</title>
    <desc>Created with sketchtool.</desc>
    <g id="Guide" stroke="none" stroke-width="1" fill="none" fill-rule="evenodd">
        <g id="icons" transform="translate(-544.000000, -456.000000)" fill="#222222">
            <g id=".platform/icon/rhombus" transform="translate(544.000000, 456.000000)">
                <g id="form">
                    <path d="M12.3431458,11.3431458 C11.790861,11.3431458 11.3431458,11.790861 11.3431458,12.3431458 L11.3431458,19.6568542 C11.3431458,20.209139 11.790861,20.6568542 12.3431458,20.6568542 L19.6568542,20.6568542 C20.209139,20.6568542 20.6568542,20.209139 20.6568542,19.6568542 L20.6568542,12.3431458 C20.6568542,11.790861 20.209139,11.3431458 19.6568542,11.3431458 L12.3431458,11.3431458 Z M12.3431458,9.34314575 L19.6568542,9.34314575 C21.3137085,9.34314575 22.6568542,10.6862915 22.6568542,12.3431458 L22.6568542,19.6568542 C22.6568542,21.3137085 21.3137085,22.6568542 19.6568542,22.6568542 L12.3431458,22.6568542 C10.6862915,22.6568542 9.34314575,21.3137085 9.34314575,19.6568542 L9.34314575,12.3431458 C9.34314575,10.6862915 10.6862915,9.34314575 12.3431458,9.34314575 Z" transform="translate(16.000000, 16.000000) rotate(45.000000) translate(-16.000000, -16.000000) "></path>
                </g>
            </g>
        </g>
    </g>
</svg>