<svg xmlns="http://www.w3.org/2000/svg" width="32" height="32" viewBox="0 0 32 32">
    <path fill="#222" fill-rule="evenodd" d="M16 7a1 1 0 0 1 1 1v1.07a6.964 6.964 0 0 1 3.191 1.323l1.102-1.1a1 1 0 0 1 1.414 1.414l-1.1 1.102A6.964 6.964 0 0 1 22.93 15H24a1 1 0 0 1 0 2l-1.071.001a6.964 6.964 0 0 1-1.322 3.19l1.1 1.102a1 1 0 0 1-1.414 1.414l-1.102-1.1A6.964 6.964 0 0 1 17 22.93V24a1 1 0 0 1-2 0l-.001-1.071a6.964 6.964 0 0 1-3.19-1.322l-1.102 1.1a1 1 0 1 1-1.414-1.414l1.1-1.102a6.964 6.964 0 0 1-1.322-3.19L8 17a1 1 0 0 1 0-2h1.07a6.964 6.964 0 0 1 1.323-3.191l-1.1-1.102a1 1 0 0 1 1.414-1.414l1.102 1.1a6.964 6.964 0 0 1 3.19-1.322L15 8a1 1 0 0 1 1-1zm0 4a5 5 0 1 0 0 10 5 5 0 0 0 0-10zm0 2a3 3 0 1 1 0 6 3 3 0 0 1 0-6zm0 2a1 1 0 1 0 0 2 1 1 0 0 0 0-2z"/>
</svg>
