<?xml version="1.0" encoding="UTF-8"?>
<svg width="32px" height="32px" viewBox="0 0 32 32" version="1.1" xmlns="http://www.w3.org/2000/svg" xmlns:xlink="http://www.w3.org/1999/xlink">
    <!-- Generator: sketchtool 59 (101010) - https://sketch.com -->
    <title>38322FB5-E7C2-419C-8618-880A221B76F1</title>
    <desc>Created with sketchtool.</desc>
    <g id="Guide" stroke="none" stroke-width="1" fill="none" fill-rule="evenodd">
        <g id="icons" transform="translate(-320.000000, -568.000000)" fill="#222222">
            <g id=".platform/icon/sms" transform="translate(320.000000, 568.000000)">
                <g id="SMS">
                    <path d="M9.829,13.6145 C9.77399973,13.7025004 9.7162503,13.7684998 9.65575,13.8125 C9.5952497,13.8565002 9.51733381,13.8785 9.422,13.8785 C9.33766624,13.8785 9.24691715,13.8519169 9.14975,13.79875 L8.81975,13.62 L8.81975,13.62 C8.69691605,13.5539997 8.55666746,13.4944169 8.399,13.44125 C8.24133254,13.3880831 8.06166768,13.3615 7.86,13.3615 C7.51166492,13.3615 7.25225085,13.4357493 7.08175,13.58425 C6.91124915,13.7327507 6.826,13.9334987 6.826,14.1865 C6.826,14.3478341 6.87733282,14.4816661 6.98,14.588 C7.08266718,14.6943339 7.21741583,14.7859996 7.38425,14.863 C7.49547278,14.9143336 7.61728693,14.9628148 7.74969415,15.0084444 L7.95625,15.07475 C8.17075107,15.138917 8.38983222,15.2104163 8.6135,15.28925 C8.83716779,15.3680837 9.05624893,15.4606661 9.27075,15.567 C9.48525107,15.6733339 9.67591583,15.8089992 9.84275,15.974 C10.0095842,16.1390008 10.1443328,16.3397488 10.247,16.57625 C10.3496672,16.8127512 10.401,17.0978317 10.401,17.4315 C10.401,17.8018352 10.336834,18.1483317 10.2085,18.471 C10.080166,18.7936683 9.89408455,19.0750821 9.65025,19.31525 C9.40641545,19.5554179 9.10575179,19.7442493 8.74825,19.88175 C8.39074821,20.0192507 7.98466894,20.088 7.53,20.088 C7.28066542,20.088 7.02675129,20.0623336 6.76825,20.011 C6.50974871,19.9596664 6.25950121,19.8872505 6.0175,19.79375 C5.77549879,19.7002495 5.54816773,19.589334 5.3355,19.461 C5.12283227,19.332666 4.93766745,19.1896675 4.78,19.032 L5.33,18.163 C5.37400022,18.1006664 5.43174964,18.0484169 5.50325,18.00625 C5.57475036,17.9640831 5.65266624,17.943 5.737,17.943 C5.84700055,17.943 5.95791611,17.977833 6.06975,18.0475 L6.44925,18.2785 L6.44925,18.2785 C6.59041737,18.3628338 6.75266575,18.439833 6.936,18.5095 C7.11933425,18.579167 7.33566542,18.614 7.585,18.614 C7.92233502,18.614 8.18449907,18.5397507 8.3715,18.39125 C8.55850093,18.2427493 8.652,18.0071683 8.652,17.6845 C8.652,17.4974991 8.60066718,17.3453339 8.498,17.228 C8.39533282,17.1106661 8.26058417,17.0135004 8.09375,16.9365 C7.98252722,16.8851664 7.86112047,16.8379074 7.72952807,16.7947223 L7.5245,16.733 C7.31183227,16.674333 7.09366778,16.6092504 6.87,16.53775 C6.64633222,16.4662496 6.42816773,16.3782505 6.2155,16.27375 C6.00283227,16.1692495 5.81308417,16.0317509 5.64625,15.86125 C5.47941583,15.6907491 5.34466718,15.4780846 5.242,15.22325 C5.13933282,14.9684154 5.088,14.6540019 5.088,14.28 C5.088,13.9793318 5.14849939,13.6860014 5.2695,13.4 C5.3905006,13.1139986 5.56833216,12.8591678 5.803,12.6355 C6.03766784,12.4118322 6.32549829,12.233084 6.6665,12.09925 C7.0075017,11.965416 7.3979978,11.8985 7.838,11.8985 C8.0836679,11.8985 8.3229155,11.9177498 8.55575,11.95625 C8.7885845,11.9947502 9.00949896,12.051583 9.2185,12.12675 C9.42750104,12.201917 9.62274909,12.2917495 9.80425,12.39625 C9.98575091,12.5007505 10.1479993,12.6189993 10.291,12.751 L9.829,13.6145 Z M20.5045,11.9865 L20.5045,20 L18.8655,20 L18.8655,15.391 C18.8655,15.2846661 18.86825,15.1691673 18.87375,15.0445 C18.87925,14.9198327 18.8893333,14.793334 18.904,14.665 L16.7755,18.7845 C16.7094997,18.912834 16.6205839,19.0099997 16.50875,19.076 C16.3969161,19.1420003 16.2695007,19.175 16.1265,19.175 L15.8735,19.175 C15.7304993,19.175 15.6030839,19.1420003 15.49125,19.076 C15.3794161,19.0099997 15.2905003,18.912834 15.2245,18.7845 L13.096,14.654 L13.1235,15.04175 L13.1235,15.04175 C13.1308334,15.1682506 13.1345,15.2846661 13.1345,15.391 L13.1345,20 L11.4955,20 L11.4955,11.9865 L12.9145,11.9865 C12.9951671,11.9865 13.0657497,11.9883333 13.12625,11.992 C13.1867503,11.9956667 13.2408331,12.0066666 13.2885,12.025 C13.3361669,12.0433334 13.3792498,12.0717498 13.41775,12.11025 C13.4562502,12.1487502 13.4938332,12.202833 13.5305,12.2725 L15.593,16.337 C15.6663337,16.476334 15.7369163,16.6211659 15.80475,16.7715 C15.8725837,16.9218341 15.9376664,17.0758325 16,17.2335 C16.0623336,17.0721659 16.1274163,16.9145008 16.19525,16.7605 C16.2630837,16.6064992 16.3354996,16.459834 16.4125,16.3205 L18.4695,12.2725 C18.5061668,12.202833 18.5437498,12.1487502 18.58225,12.11025 C18.6207502,12.0717498 18.6638331,12.0433334 18.7115,12.025 C18.7591669,12.0066666 18.8132497,11.9956667 18.87375,11.992 L18.9720625,11.987875 L18.9720625,11.987875 L20.5045,11.9865 Z M26.483,13.6145 C26.4279997,13.7025004 26.3702503,13.7684998 26.30975,13.8125 C26.2492497,13.8565002 26.1713338,13.8785 26.076,13.8785 C25.9916662,13.8785 25.9009172,13.8519169 25.80375,13.79875 L25.47375,13.62 L25.47375,13.62 C25.3509161,13.5539997 25.2106675,13.4944169 25.053,13.44125 C24.8953325,13.3880831 24.7156677,13.3615 24.514,13.3615 C24.1656649,13.3615 23.9062509,13.4357493 23.73575,13.58425 C23.5652491,13.7327507 23.48,13.9334987 23.48,14.1865 C23.48,14.3478341 23.5313328,14.4816661 23.634,14.588 C23.7366672,14.6943339 23.8714158,14.7859996 24.03825,14.863 C24.1494728,14.9143336 24.2712869,14.9628148 24.4036942,15.0084444 L24.61025,15.07475 C24.8247511,15.138917 25.0438322,15.2104163 25.2675,15.28925 C25.4911678,15.3680837 25.7102489,15.4606661 25.92475,15.567 C26.1392511,15.6733339 26.3299158,15.8089992 26.49675,15.974 C26.6635842,16.1390008 26.7983328,16.3397488 26.901,16.57625 C27.0036672,16.8127512 27.055,17.0978317 27.055,17.4315 C27.055,17.8018352 26.990834,18.1483317 26.8625,18.471 C26.734166,18.7936683 26.5480846,19.0750821 26.30425,19.31525 C26.0604154,19.5554179 25.7597518,19.7442493 25.40225,19.88175 C25.0447482,20.0192507 24.6386689,20.088 24.184,20.088 C23.9346654,20.088 23.6807513,20.0623336 23.42225,20.011 C23.1637487,19.9596664 22.9135012,19.8872505 22.6715,19.79375 C22.4294988,19.7002495 22.2021677,19.589334 21.9895,19.461 C21.7768323,19.332666 21.5916675,19.1896675 21.434,19.032 L21.984,18.163 C22.0280002,18.1006664 22.0857496,18.0484169 22.15725,18.00625 C22.2287504,17.9640831 22.3066662,17.943 22.391,17.943 C22.5010006,17.943 22.6119161,17.977833 22.72375,18.0475 L23.10325,18.2785 L23.10325,18.2785 C23.2444174,18.3628338 23.4066657,18.439833 23.59,18.5095 C23.7733343,18.579167 23.9896654,18.614 24.239,18.614 C24.576335,18.614 24.8384991,18.5397507 25.0255,18.39125 C25.2125009,18.2427493 25.306,18.0071683 25.306,17.6845 C25.306,17.4974991 25.2546672,17.3453339 25.152,17.228 C25.0493328,17.1106661 24.9145842,17.0135004 24.74775,16.9365 C24.6365272,16.8851664 24.5151205,16.8379074 24.3835281,16.7947223 L24.1785,16.733 C23.9658323,16.674333 23.7476678,16.6092504 23.524,16.53775 C23.3003322,16.4662496 23.0821677,16.3782505 22.8695,16.27375 C22.6568323,16.1692495 22.4670842,16.0317509 22.30025,15.86125 C22.1334158,15.6907491 21.9986672,15.4780846 21.896,15.22325 C21.7933328,14.9684154 21.742,14.6540019 21.742,14.28 C21.742,13.9793318 21.8024994,13.6860014 21.9235,13.4 C22.0445006,13.1139986 22.2223322,12.8591678 22.457,12.6355 C22.6916678,12.4118322 22.9794983,12.233084 23.3205,12.09925 C23.6615017,11.965416 24.0519978,11.8985 24.492,11.8985 C24.7376679,11.8985 24.9769155,11.9177498 25.20975,11.95625 C25.4425845,11.9947502 25.663499,12.051583 25.8725,12.12675 C26.081501,12.201917 26.2767491,12.2917495 26.45825,12.39625 C26.6397509,12.5007505 26.8019993,12.6189993 26.945,12.751 L26.483,13.6145 Z"></path>
                </g>
            </g>
        </g>
    </g>
</svg>