<?xml version="1.0" encoding="UTF-8"?>
<svg width="32px" height="32px" viewBox="0 0 32 32" version="1.1" xmlns="http://www.w3.org/2000/svg" xmlns:xlink="http://www.w3.org/1999/xlink">
    <!-- Generator: sketchtool 59 (101010) - https://sketch.com -->
    <title>CBB83416-E2FC-405A-B843-5266B458D8A8</title>
    <desc>Created with sketchtool.</desc>
    <g id="Guide" stroke="none" stroke-width="1" fill="none" fill-rule="evenodd">
        <g id="icons" transform="translate(-600.000000, -568.000000)" fill="#222222">
            <g id=".platform/icon/string" transform="translate(600.000000, 568.000000)">
                <g id="Combined-Shape">
                    <path d="M15.0838427,7.59918117 C15.433365,6.80027294 16.566635,6.80027294 16.9161573,7.59918117 L16.9161573,7.59918117 L23.9161573,23.5991812 C24.1375235,24.1051609 23.9067986,24.6947912 23.4008188,24.9161573 C22.8948391,25.1375235 22.3052088,24.9067986 22.0838427,24.4008188 L22.0838427,24.4008188 L20.1539846,19.9882174 C20.1037915,19.9959749 20.0523658,20 20,20 L20,20 L12,20 C11.9479833,20 11.8968942,19.9960284 11.8470194,19.988372 L9.91615733,24.4008188 C9.69479121,24.9067986 9.10516089,25.1375235 8.59918117,24.9161573 C8.09320144,24.6947912 7.86247654,24.1051609 8.08384267,23.5991812 L8.08384267,23.5991812 Z M16,10.4948927 L12.7157473,18 L19.2837473,18 L16,10.4948927 Z"></path>
                </g>
            </g>
        </g>
    </g>
</svg>