<?xml version="1.0" encoding="UTF-8"?>
<svg width="32px" height="32px" viewBox="0 0 32 32" version="1.1" xmlns="http://www.w3.org/2000/svg" xmlns:xlink="http://www.w3.org/1999/xlink">
    <!-- Generator: sketchtool 59 (101010) - https://sketch.com -->
    <title>C05B6EF9-BA8F-41B8-A310-E6D3D3FB4B71</title>
    <desc>Created with sketchtool.</desc>
    <g id="Guide" stroke="none" stroke-width="1" fill="none" fill-rule="evenodd">
        <g id="icons" transform="translate(-768.000000, -568.000000)" fill="#222222">
            <g id=".platform/icon/tag" transform="translate(768.000000, 568.000000)">
                <g id="Combined-Shape">
                    <path d="M17.1195624,5.70403857 L21.1209902,9.70422095 C21.6838013,10.2668569 22,11.0300602 22,11.8258714 L22,21.997262 C22,23.6541162 20.6568542,24.997262 19,24.997262 L11,24.997262 C9.34314575,24.997262 8,23.6541162 8,21.997262 L8,11.8255067 C8,11.0300191 8.31594231,10.2670989 8.87834942,9.70451664 L12.8769217,5.70469906 C14.0483122,4.53294363 15.9478072,4.53264793 17.1195624,5.70403857 Z M14.2913555,7.11869236 L10.2927831,11.11851 C10.1053141,11.3060374 10,11.5603441 10,11.8255067 L10,21.997262 C10,22.5495467 10.4477153,22.997262 11,22.997262 L19,22.997262 C19.5522847,22.997262 20,22.5495467 20,21.997262 L20,11.8258714 C20,11.560601 19.8946004,11.3061999 19.7069967,11.1186546 L15.7055689,7.1184722 C15.3149839,6.72800866 14.681819,6.72810722 14.2913555,7.11869236 Z M15,8.99726196 C16.6568542,8.99726196 18,10.3404077 18,11.997262 C18,13.6541162 16.6568542,14.997262 15,14.997262 C13.3431458,14.997262 12,13.6541162 12,11.997262 C12,10.3404077 13.3431458,8.99726196 15,8.99726196 Z M15,10.997262 C14.4477153,10.997262 14,11.4449772 14,11.997262 C14,12.5495467 14.4477153,12.997262 15,12.997262 C15.5522847,12.997262 16,12.5495467 16,11.997262 C16,11.4449772 15.5522847,10.997262 15,10.997262 Z" transform="translate(15.000000, 14.911475) rotate(-45.000000) translate(-15.000000, -14.911475) "></path>
                </g>
            </g>
        </g>
    </g>
</svg>