<?xml version="1.0" encoding="UTF-8"?>
<svg width="32px" height="32px" viewBox="0 0 32 32" version="1.1" xmlns="http://www.w3.org/2000/svg" xmlns:xlink="http://www.w3.org/1999/xlink">
    <!-- Generator: sketchtool 59 (101010) - https://sketch.com -->
    <title>C0F7A4A4-35FF-4A14-B540-E24A22704B70</title>
    <desc>Created with sketchtool.</desc>
    <g id="Guide" stroke="none" stroke-width="1" fill="none" fill-rule="evenodd">
        <g id="icons" transform="translate(-320.000000, -624.000000)" fill="#222222">
            <g id=".platform/icon/telegram" transform="translate(320.000000, 624.000000)">
                <g id="Path-2">
                    <path d="M10.6282465,14.9283315 C10.3743096,14.8266416 10.173114,14.6253673 10.0715233,14.3713907 L8.07152331,9.37139068 C7.73494527,8.52994557 8.60158082,7.71059052 9.42284092,8.09379607 L24.4228409,15.0928981 C25.1922392,15.4519046 25.1924288,16.5458863 24.4231549,16.9051594 L9.42315489,23.9105915 C8.60201259,24.2940886 7.73508604,23.4749992 8.07140731,22.6334336 L10.0714073,17.6288994 C10.1730597,17.3745381 10.374603,17.1730106 10.6289723,17.0713782 L13.3074174,16.0012146 L10.6282465,14.9283315 Z M16.3717535,15.0739356 C17.2097682,15.4095215 17.2093045,16.5959582 16.3710277,16.9308889 L11.7693951,18.7694555 L10.8663025,21.0292342 L21.6359222,15.9995116 L10.866873,10.9746 L11.7693952,13.2309055 L16.3717535,15.0739356 Z"></path>
                </g>
            </g>
        </g>
    </g>
</svg>