<?xml version="1.0" encoding="UTF-8"?>
<svg width="32px" height="32px" viewBox="0 0 32 32" version="1.1" xmlns="http://www.w3.org/2000/svg" xmlns:xlink="http://www.w3.org/1999/xlink">
    <!-- Generator: sketchtool 59 (101010) - https://sketch.com -->
    <title>800FAB6D-7721-497C-A124-4CF3EB95233F</title>
    <desc>Created with sketchtool.</desc>
    <g id="Guide" stroke="none" stroke-width="1" fill="none" fill-rule="evenodd">
        <g id="icons" transform="translate(-712.000000, -512.000000)" fill="#222222">
            <g id=".platform/icon/unplug" transform="translate(712.000000, 512.000000)">
                <g id="Combined-Shape">
                    <path d="M19,8 C19.5522847,8 20,8.44771525 20,9 L19.9997272,10.587 L22.2927738,8.29301263 C22.6531969,7.9324678 23.2204233,7.90464249 23.612766,8.20960113 L23.7069874,8.29277383 C24.0975776,8.68323217 24.0976845,9.31639714 23.7072262,9.70698737 L23.7072262,9.70698737 L20.8078948,12.6057306 C21.5320706,13.1534077 22,14.0220585 22,15 L22,16.5 C22,18.9852814 19.9852814,21 17.5,21 L17,21 L17,21 L17,23 C17,23.5522847 16.5522847,24 16,24 C15.4477153,24 15,23.5522847 15,23 L15,21 L14.5,21 C13.8849788,21 13.2987744,20.8766204 12.7647879,20.6532621 L9.71195332,23.7069874 C9.32149498,24.0975776 8.68833001,24.0976845 8.29773978,23.7072262 C7.90714955,23.3167678 7.90704264,22.6836029 8.29750098,22.2930126 L8.29750098,22.2930126 L11.1200502,19.470935 C10.4228394,18.6783614 10,17.6385604 10,16.5 L10,15 C10,13.6937479 10.8348501,12.5824856 12.0000889,12.1706743 L12,9 C12,8.44771525 12.4477153,8 13,8 C13.5522847,8 14,8.44771525 14,9 L13.9997272,12 L17.9997272,12 L18,9 C18,8.44771525 18.4477153,8 19,8 Z M19.3515298,14.0635339 L14.4189724,18.9987117 C14.4458765,18.9995684 14.4728878,19 14.5,19 L17.5,19 C18.8807119,19 20,17.8807119 20,16.5 L20,15 C20,14.571424 19.7303928,14.2058181 19.3515298,14.0635339 Z M16.5877272,14 L13,14 C12.4477153,14 12,14.4477153 12,15 L12,16.5 C12,17.0856044 12.2013467,17.6241818 12.5385881,18.0502802 L16.5877272,14 Z"></path>
                </g>
            </g>
        </g>
    </g>
</svg>