<?xml version="1.0" encoding="UTF-8"?>
<svg width="32px" height="32px" viewBox="0 0 32 32" version="1.1" xmlns="http://www.w3.org/2000/svg" xmlns:xlink="http://www.w3.org/1999/xlink">
    <!-- Generator: sketchtool 59 (101010) - https://sketch.com -->
    <title>9D415190-BF99-49A0-A782-769BE8A4CF16</title>
    <desc>Created with sketchtool.</desc>
    <g id="Guide" stroke="none" stroke-width="1" fill="none" fill-rule="evenodd">
        <g id="icons" transform="translate(-824.000000, -232.000000)" fill="#222222">
            <g id=".platform/icon/upload" transform="translate(824.000000, 232.000000)">
                <g id="Combined-Shape">
                    <path d="M16,10 L16.0193545,10.0001861 L16.0193545,10.0001861 L16.0590314,10.0017331 C16.070793,10.0024244 16.0825448,10.0033224 16.0942807,10.0044273 L16.1166211,10.0067277 L16.1166211,10.0067277 L16.1434626,10.0102835 C16.1633028,10.0131437 16.1830736,10.0166006 16.202746,10.0206542 C16.2116533,10.0223995 16.2204944,10.024347 16.2292908,10.0264107 L16.2610035,10.0344875 L16.2610035,10.0344875 L16.2918437,10.0433274 C16.298628,10.0453906 16.3053947,10.0475275 16.3121425,10.0497381 C16.3317977,10.0561225 16.3515792,10.0633157 16.3710585,10.071104 C16.3887956,10.0781964 16.4060985,10.085679 16.4232215,10.0936734 C16.4438914,10.1033766 16.4642939,10.1137939 16.484277,10.1248758 C16.4963944,10.1314988 16.5086131,10.1386069 16.5207088,10.1459955 C16.525834,10.1492288 16.5309769,10.1524358 16.5360882,10.155688 L16.588404,10.191254 C16.5987432,10.1987958 16.6089704,10.2065606 16.6190789,10.2145484 C16.6209509,10.2160946 16.6232039,10.2178869 16.625449,10.2196888 L16.7071068,10.2928932 L16.7071068,10.2928932 L21.7071068,15.2928932 C22.0976311,15.6834175 22.0976311,16.3165825 21.7071068,16.7071068 C21.3165825,17.0976311 20.6834175,17.0976311 20.2928932,16.7071068 L17,13.415 L17,23 C17,23.5522847 16.5522847,24 16,24 C15.4477153,24 15,23.5522847 15,23 L15,13.414 L11.7071068,16.7071068 C11.3165825,17.0976311 10.6834175,17.0976311 10.2928932,16.7071068 C9.90236893,16.3165825 9.90236893,15.6834175 10.2928932,15.2928932 L15.2928932,10.2928932 L15.374551,10.2196888 C15.3767961,10.2178869 15.3790491,10.2160946 15.3813101,10.2143117 L15.2928932,10.2928932 C15.3303693,10.2554172 15.3700798,10.2215374 15.411596,10.191254 C15.4336642,10.1752699 15.4561921,10.1602113 15.4793398,10.1460674 C15.4913869,10.1386069 15.5036056,10.1314988 15.5159379,10.1246712 C15.5357061,10.1137939 15.5561086,10.1033766 15.5769009,10.0936538 C15.5939015,10.085679 15.6112044,10.0781964 15.628664,10.0712255 C15.6484208,10.0633157 15.6682023,10.0561225 15.6882636,10.0495467 C15.6946053,10.0475275 15.701372,10.0453906 15.7081563,10.0433274 L15.7392043,10.0343478 C15.7496394,10.0315365 15.760142,10.0288898 15.7707092,10.0264107 L15.797254,10.0206542 C15.8169264,10.0166006 15.8366972,10.0131437 15.8565374,10.0102835 C15.8651345,10.0089744 15.8742379,10.0077894 15.8833789,10.0067277 L15.9057193,10.0044273 C15.9174552,10.0033224 15.929207,10.0024244 15.9409686,10.0017331 L15.980824,10.0001802 C15.9872016,10.0000602 15.9935938,10 16,10 Z M23,8 C23.5522847,8 24,8.44771525 24,9 C24,9.55228475 23.5522847,10 23,10 L9,10 C8.44771525,10 8,9.55228475 8,9 C8,8.44771525 8.44771525,8 9,8 L23,8 Z"></path>
                </g>
            </g>
        </g>
    </g>
</svg>