<?xml version="1.0" encoding="UTF-8"?>
<svg width="32px" height="32px" viewBox="0 0 32 32" version="1.1" xmlns="http://www.w3.org/2000/svg" xmlns:xlink="http://www.w3.org/1999/xlink">
    <!-- Generator: sketchtool 59 (101010) - https://sketch.com -->
    <title>0D1DCD02-E511-4E31-ADDF-D1CF2E263642</title>
    <desc>Created with sketchtool.</desc>
    <g id="Guide" stroke="none" stroke-width="1" fill="none" fill-rule="evenodd">
        <g id="icons" transform="translate(-768.000000, -176.000000)" fill="#222222">
            <g id=".platform/icon/user" transform="translate(768.000000, 176.000000)">
                <g id="Combined-Shape">
                    <path d="M16,8 C18.7614237,8 21,10.2385763 21,13 C21,14.5207562 20.32107,15.8829398 19.2497785,16.7999825 C21.4793821,17.9693475 23,20.3070941 23,23 C23,23.5522847 22.5522847,24 22,24 C21.4477153,24 21,23.5522847 21,23 C21,20.2385763 18.7614237,18 16,18 C13.2385763,18 11,20.2385763 11,23 C11,23.5522847 10.5522847,24 10,24 C9.44771525,24 9,23.5522847 9,23 C9,20.3070941 10.5206179,17.9693475 12.7500391,16.798575 C11.67893,15.8829398 11,14.5207562 11,13 C11,10.2385763 13.2385763,8 16,8 Z M16,10 C14.3431458,10 13,11.3431458 13,13 C13,14.6568542 14.3431458,16 16,16 C17.6568542,16 19,14.6568542 19,13 C19,11.3431458 17.6568542,10 16,10 Z"></path>
                </g>
            </g>
        </g>
    </g>
</svg>