<?xml version="1.0" encoding="UTF-8"?>
<svg width="32px" height="32px" viewBox="0 0 32 32" version="1.1" xmlns="http://www.w3.org/2000/svg" xmlns:xlink="http://www.w3.org/1999/xlink">
    <!-- Generator: sketchtool 59 (101010) - https://sketch.com -->
    <title>2375D844-CF12-4DCD-8BBD-0682AF96819D</title>
    <desc>Created with sketchtool.</desc>
    <g id="Guide" stroke="none" stroke-width="1" fill="none" fill-rule="evenodd">
        <g id="icons" transform="translate(-432.000000, -568.000000)" fill="#222222">
            <g id=".platform/icon/view" transform="translate(432.000000, 568.000000)">
                <g id="Combined-Shape">
                    <path d="M16,10 C20.3214317,10 23.6462974,11.8471476 25.8545569,15.4806423 C26.1413903,15.952601 25.9913165,16.5677236 25.5193577,16.8545569 C25.047399,17.1413903 24.4322764,16.9913165 24.1454431,16.5193577 C23.4014593,15.2951985 22.5220003,14.3230206 21.4991749,13.5988269 C21.8217232,14.334318 22,15.1463396 22,16 C22,19.3137085 19.3137085,22 16,22 C12.6862915,22 10,19.3137085 10,16 C10,15.1467278 10.1781147,14.3350566 10.499192,13.6001382 C9.47747172,14.3236042 8.59831743,15.295566 7.85455694,16.5193577 C7.56772359,16.9913165 6.95260104,17.1413903 6.48064228,16.8545569 C6.00868351,16.5677236 5.85860971,15.952601 6.14544306,15.4806423 C8.3537026,11.8471476 11.6785683,10 16,10 Z M16,12 C13.790861,12 12,13.790861 12,16 C12,18.209139 13.790861,20 16,20 C18.209139,20 20,18.209139 20,16 C20,13.790861 18.209139,12 16,12 Z M16,13 C17.6568542,13 19,14.3431458 19,16 C19,16.5522847 18.5522847,17 18,17 C17.4477153,17 17,16.5522847 17,16 L17,16 L16.9932723,15.8833789 C16.9355072,15.3860402 16.5128358,15 16,15 C15.4477153,15 15,15.4477153 15,16 L15,16 L14.9932723,16.1166211 C14.9355072,16.6139598 14.5128358,17 14,17 C13.4477153,17 13,16.5522847 13,16 C13,14.3431458 14.3431458,13 16,13 Z"></path>
                </g>
            </g>
        </g>
    </g>
</svg>