<?xml version="1.0" encoding="UTF-8"?>
<svg width="32px" height="32px" viewBox="0 0 32 32" version="1.1" xmlns="http://www.w3.org/2000/svg" xmlns:xlink="http://www.w3.org/1999/xlink">
    <!-- Generator: sketchtool 59 (101010) - https://sketch.com -->
    <title>3C0E02BA-43FF-4D84-9054-9925FE6236AE</title>
    <desc>Created with sketchtool.</desc>
    <g id="Guide" stroke="none" stroke-width="1" fill="none" fill-rule="evenodd">
        <g id="icons" transform="translate(-656.000000, -176.000000)" fill="#222222">
            <g id=".platform/icon/warning" transform="translate(656.000000, 176.000000)">
                <g id="Path-3">
                    <path d="M15.9970907,19.00442 C16.5493754,19.00442 16.9970907,19.4521352 16.9970907,20.00442 C16.9970907,20.5567047 16.5493754,21.00442 15.9970907,21.00442 C15.4448059,21.00442 14.9970907,20.5567047 14.9970907,20.00442 C14.9970907,19.4521352 15.4448059,19.00442 15.9970907,19.00442 Z M15.9970907,13.00442 C16.5493754,13.00442 16.9970907,13.4521352 16.9970907,14.00442 L16.9970907,17.00442 C16.9970907,17.5567047 16.5493754,18.00442 15.9970907,18.00442 C15.4448059,18.00442 14.9970907,17.5567047 14.9970907,17.00442 L14.9970907,14.00442 C14.9970907,13.4521352 15.4448059,13.00442 15.9970907,13.00442 Z M9,24 C7.47034705,24 6.50691937,22.3526856 7.25684893,21.0194775 L14.2568489,8.01947752 C15.0214571,6.66017416 16.9785429,6.66017416 17.7431511,8.01947752 L24.7431511,21.0194775 C25.4930806,22.3526856 24.529653,24 23,24 L9,24 Z M9,22 L23,22 L16,9 L9,22 Z"></path>
                </g>
            </g>
        </g>
    </g>
</svg>